<svg width="100" height="200" viewBox="0 0 100 200" xmlns="http://www.w3.org/2000/svg">
  <!-- Body of the bowling pin -->
  <path d="M30 180 Q30 140 20 100 Q10 60 20 40 Q30 20 50 20 Q70 20 80 40 Q90 60 80 100 Q70 140 70 180 Q70 190 50 190 Q30 190 30 180 Z" fill="#FFFFFF" stroke="#000000" stroke-width="2"/>
  <!-- Neck and head -->
  <path d="M40 20 Q40 10 50 10 Q60 10 60 20 Q60 30 50 30 Q40 30 40 20 Z" fill="#FFFFFF" stroke="#000000" stroke-width="2"/>
  <!-- Red stripes -->
  <rect x="35" y="50" width="30" height="10" fill="#FF0000"/>
  <rect x="35" y="70" width="30" height="10" fill="#FF0000"/>
</svg>